<?xml version="1.0" encoding="UTF-8"?><svg id="a" xmlns="http://www.w3.org/2000/svg" viewBox="0 0 307.87 269.55"><defs><style>.b{fill:#fff;}.c{stroke-width:2px;}.c,.d{fill:none;stroke:#fff;stroke-miterlimit:10;}.d{stroke-width:4px;}</style></defs><path class="d" d="M242.64,158.04l-87.5,49.87c-1.07,.61-2.38,.61-3.45,0l-87.5-49.87c-1.09-.62-1.76-1.78-1.76-3.03V55.35c0-1.25,.67-2.41,1.76-3.03L151.69,2.46c1.07-.61,2.38-.61,3.45,0l87.5,49.87c1.09,.62,1.76,1.78,1.76,3.03v99.66c0,1.25-.67,2.41-1.76,3.03Z"/><polygon class="b" points="150.18 70.64 150.18 66.23 126.4 66.23 126.4 108.2 150.18 108.2 150.18 103.5 131.91 103.5 131.91 90.38 148.14 90.38 148.14 86.05 131.91 86.05 131.91 70.64 150.18 70.64"/><polygon class="b" points="156.65 70.64 156.65 66.23 180.43 66.23 180.43 108.2 156.65 108.2 156.65 103.5 174.91 103.5 174.91 90.38 158.69 90.38 158.69 86.05 174.91 86.05 174.91 70.64 156.65 70.64"/><circle class="c" cx="154.01" cy="87.87" r="11.24"/><polygon class="b" points="167.07 54.08 166.9 54.08 166.9 65.14 167.07 65.14 169.65 65.14 169.65 56.68 175.38 56.68 175.38 65.14 178.05 65.14 178.05 54.08 167.07 54.08"/><polygon class="b" points="135.28 155.25 141.52 155.25 153.28 118.66 153.77 118.66 164.56 155.25 170.77 155.25 156.88 112.49 150.63 112.49 135.28 155.25"/><g><path class="b" d="M16.49,241.94c-.08,.9-.14,1.78-.17,2.62-.03,.84-.05,1.49-.05,1.94,0,.41,.01,.8,.03,1.17,.02,.37,.04,.68,.06,.92h-.71c-.21-1.5-.52-2.69-.96-3.56-.43-.87-.99-1.49-1.68-1.85-.69-.36-1.49-.54-2.42-.54h-1.26c-.6,0-1.05,.05-1.36,.15-.31,.1-.51,.31-.62,.62-.1,.31-.15,.78-.15,1.42v16.02c0,.62,.05,1.08,.15,1.4,.1,.32,.31,.53,.62,.63,.31,.1,.76,.15,1.36,.15h1.51c.92,0,1.74-.2,2.45-.6,.71-.4,1.31-1.08,1.82-2.05,.5-.97,.89-2.27,1.16-3.91h.71c-.06,.66-.09,1.52-.09,2.59,0,.47,0,1.14,.03,2,.02,.86,.08,1.76,.18,2.68-1.05-.04-2.23-.07-3.54-.08-1.32-.01-2.49-.02-3.51-.02h-1.97c-.8,0-1.66,0-2.59,.02-.92,.01-1.86,.02-2.8,.03-.95,.01-1.84,.03-2.68,.05v-.62c.66-.04,1.15-.12,1.48-.25,.33-.12,.55-.37,.66-.74,.11-.37,.17-.92,.17-1.66v-15.28c0-.76-.06-1.32-.17-1.68-.11-.36-.34-.61-.68-.74-.34-.13-.83-.21-1.46-.23v-.62c.84,.02,1.74,.04,2.68,.05,.94,.01,1.88,.02,2.8,.03,.92,.01,1.79,.01,2.59,.01h1.97c.95,0,2.02,0,3.22-.01s2.27-.04,3.22-.08Zm-4.81,10.54v.62H6.29v-.62h5.39Zm.89-4.07c-.08,1.17-.12,2.06-.11,2.68,.01,.62,.02,1.18,.02,1.69s0,1.08,.03,1.69c.02,.62,.07,1.51,.15,2.68h-.71c-.1-.72-.29-1.39-.57-2s-.67-1.11-1.19-1.49c-.51-.38-1.18-.57-2-.57v-.62c.62,0,1.14-.13,1.57-.39,.43-.26,.79-.6,1.06-1.02,.28-.42,.5-.87,.66-1.34,.16-.47,.29-.91,.37-1.33h.71Z"/><path class="b" d="M25.51,239.63v21.26c0,.86,.15,1.45,.45,1.76,.3,.31,.81,.46,1.53,.46v.65c-.39-.02-.98-.05-1.76-.08-.78-.03-1.57-.05-2.37-.05s-1.61,.02-2.42,.05c-.81,.03-1.42,.06-1.83,.08v-.65c.72,0,1.23-.15,1.53-.46,.3-.31,.45-.89,.45-1.76v-17.56c0-.92-.14-1.61-.42-2.05-.28-.44-.8-.66-1.56-.66v-.65c.66,.06,1.29,.09,1.91,.09,.84,0,1.64-.04,2.4-.11,.76-.07,1.46-.18,2.1-.32Z"/><path class="b" d="M35.22,247.49v13.4c0,.86,.15,1.45,.45,1.76,.3,.31,.81,.46,1.53,.46v.65c-.39-.02-.97-.05-1.74-.08-.77-.03-1.56-.05-2.36-.05s-1.61,.02-2.43,.05c-.82,.03-1.44,.06-1.85,.08v-.65c.72,0,1.23-.15,1.53-.46,.3-.31,.45-.89,.45-1.76v-9.71c0-.92-.14-1.61-.42-2.05s-.8-.66-1.56-.66v-.65c.66,.06,1.29,.09,1.91,.09,.86,0,1.67-.04,2.42-.11,.75-.07,1.44-.18,2.08-.32Zm-2.4-7.61c.86,0,1.55,.21,2.05,.63,.5,.42,.76,1,.76,1.74s-.25,1.32-.76,1.74c-.5,.42-1.19,.63-2.05,.63s-1.55-.21-2.05-.63c-.5-.42-.76-1-.76-1.74s.25-1.32,.76-1.74c.5-.42,1.19-.63,2.05-.63Z"/><path class="b" d="M49.98,247.39c.86,0,1.57,.11,2.11,.32,.54,.22,.97,.51,1.28,.88,.33,.39,.57,.89,.72,1.51,.15,.62,.23,1.45,.23,2.5v8.29c0,.86,.15,1.45,.45,1.76,.3,.31,.81,.46,1.53,.46v.65c-.39-.02-.98-.05-1.76-.08-.78-.03-1.55-.05-2.31-.05s-1.55,.02-2.3,.05c-.75,.03-1.32,.06-1.71,.08v-.65c.62,0,1.05-.15,1.29-.46,.25-.31,.37-.89,.37-1.76v-9.58c0-.51-.05-.96-.15-1.34-.1-.38-.29-.68-.55-.89-.27-.22-.67-.32-1.2-.32s-1.06,.15-1.53,.46c-.46,.31-.83,.74-1.11,1.28-.28,.54-.42,1.16-.42,1.83v8.57c0,.86,.13,1.45,.39,1.76,.26,.31,.68,.46,1.28,.46v.65c-.37-.02-.91-.05-1.62-.08-.71-.03-1.44-.05-2.2-.05s-1.58,.02-2.4,.05c-.82,.03-1.44,.06-1.85,.08v-.65c.72,0,1.23-.15,1.53-.46,.3-.31,.45-.89,.45-1.76v-9.71c0-.92-.14-1.61-.42-2.05s-.8-.66-1.56-.66v-.65c.66,.06,1.29,.09,1.91,.09,.86,0,1.67-.04,2.42-.11,.75-.07,1.44-.18,2.08-.32v2.77c.51-1.05,1.21-1.79,2.1-2.22,.88-.43,1.87-.65,2.96-.65Z"/><path class="b" d="M65.39,247.39c1.81,0,3.22,.53,4.25,1.6,1.03,1.07,1.54,2.81,1.54,5.24h-10.14l-.06-.59h6.32c.02-1.01-.04-1.94-.19-2.79-.14-.85-.37-1.54-.68-2.05-.31-.51-.72-.77-1.23-.77-.72,0-1.33,.45-1.83,1.36-.5,.9-.81,2.4-.91,4.5l.09,.19c-.02,.25-.04,.5-.05,.77-.01,.27-.01,.54-.01,.83,0,1.42,.2,2.57,.6,3.45,.4,.88,.91,1.53,1.53,1.93s1.24,.6,1.88,.6c.43,0,.88-.07,1.34-.2,.46-.13,.93-.38,1.4-.74,.47-.36,.91-.87,1.33-1.53l.55,.19c-.25,.78-.64,1.54-1.17,2.28-.53,.74-1.21,1.35-2.03,1.82-.82,.47-1.81,.71-2.96,.71-1.4,0-2.63-.3-3.7-.89-1.07-.6-1.91-1.5-2.51-2.71-.61-1.21-.91-2.75-.91-4.62s.32-3.5,.97-4.78c.65-1.27,1.54-2.22,2.68-2.85,1.14-.63,2.44-.94,3.9-.94Z"/><path class="b" d="M91.27,241.94v.62c-.45,.16-.93,.52-1.43,1.08s-.97,1.42-1.4,2.59l-6.5,17.6c-.16-.02-.34-.03-.52-.03h-1.08c-.18,0-.36,0-.52,.03l-7.86-19.29c-.29-.74-.61-1.25-.96-1.53-.35-.28-.68-.43-.99-.45v-.62c.62,.02,1.34,.04,2.17,.06,.83,.02,1.67,.03,2.51,.03,.95,0,1.83-.01,2.67-.03s1.5-.04,2.02-.06v.62c-.66,.02-1.17,.1-1.54,.23-.37,.13-.58,.38-.62,.74-.04,.36,.08,.9,.37,1.62l5.61,14.27-.65,.77,4.25-11.46c.55-1.54,.84-2.75,.86-3.64,.02-.88-.2-1.52-.65-1.91-.45-.39-1.1-.6-1.94-.62v-.62c.7,.02,1.36,.04,1.97,.06s1.24,.03,1.88,.03c.45,0,.88-.01,1.28-.03s.75-.04,1.06-.06Z"/><path class="b" d="M93.19,259.44c.8,0,1.44,.21,1.91,.63,.47,.42,.71,1,.71,1.74s-.24,1.32-.71,1.74c-.47,.42-1.11,.63-1.91,.63s-1.44-.21-1.91-.63c-.47-.42-.71-1-.71-1.74s.24-1.32,.71-1.74c.47-.42,1.11-.63,1.91-.63Z"/><path class="b" d="M114.88,241.94c-.08,.9-.14,1.78-.17,2.62-.03,.84-.05,1.49-.05,1.94,0,.41,.01,.8,.03,1.17,.02,.37,.04,.68,.06,.92h-.71c-.21-1.5-.52-2.69-.96-3.56-.43-.87-.99-1.49-1.68-1.85-.69-.36-1.49-.54-2.42-.54h-1.26c-.6,0-1.05,.05-1.36,.15-.31,.1-.51,.31-.62,.62-.1,.31-.15,.78-.15,1.42v16.02c0,.62,.05,1.08,.15,1.4,.1,.32,.31,.53,.62,.63,.31,.1,.76,.15,1.36,.15h1.51c.92,0,1.74-.2,2.45-.6,.71-.4,1.31-1.08,1.82-2.05,.5-.97,.89-2.27,1.16-3.91h.71c-.06,.66-.09,1.52-.09,2.59,0,.47,0,1.14,.03,2,.02,.86,.08,1.76,.18,2.68-1.05-.04-2.23-.07-3.54-.08-1.32-.01-2.49-.02-3.51-.02h-1.97c-.8,0-1.66,0-2.59,.02-.92,.01-1.86,.02-2.8,.03-.95,.01-1.84,.03-2.68,.05v-.62c.66-.04,1.15-.12,1.48-.25,.33-.12,.55-.37,.66-.74,.11-.37,.17-.92,.17-1.66v-15.28c0-.76-.06-1.32-.17-1.68-.11-.36-.34-.61-.68-.74-.34-.13-.83-.21-1.46-.23v-.62c.84,.02,1.74,.04,2.68,.05,.94,.01,1.88,.02,2.8,.03,.92,.01,1.79,.01,2.59,.01h1.97c.95,0,2.02,0,3.22-.01s2.27-.04,3.22-.08Zm-4.81,10.54v.62h-5.39v-.62h5.39Zm.89-4.07c-.08,1.17-.12,2.06-.11,2.68,.01,.62,.02,1.18,.02,1.69s0,1.08,.03,1.69c.02,.62,.07,1.51,.15,2.68h-.71c-.1-.72-.29-1.39-.57-2s-.67-1.11-1.19-1.49-1.18-.57-2-.57v-.62c.62,0,1.14-.13,1.57-.39,.43-.26,.79-.6,1.06-1.02,.28-.42,.5-.87,.66-1.34,.16-.47,.29-.91,.37-1.33h.71Z"/><path class="b" d="M125.11,241.94c.51,.02,1.21,.04,2.08,.06,.87,.02,1.74,.03,2.6,.03,.99,0,1.94-.01,2.87-.03,.92-.02,1.58-.03,1.97-.03,2.86,0,4.99,.57,6.41,1.69,1.42,1.13,2.13,2.59,2.13,4.38,0,.74-.14,1.51-.43,2.33-.29,.81-.78,1.56-1.46,2.25s-1.63,1.25-2.82,1.68c-1.19,.43-2.69,.65-4.5,.65h-3.14v-.62h2.84c1.21,0,2.13-.28,2.76-.83,.63-.55,1.06-1.28,1.29-2.19,.24-.9,.35-1.88,.35-2.93,0-1.95-.29-3.41-.86-4.38-.58-.97-1.56-1.45-2.96-1.45-.8,0-1.32,.17-1.56,.52-.24,.35-.35,1.06-.35,2.13v15.1c0,.8,.08,1.4,.25,1.79,.16,.39,.48,.65,.96,.77,.47,.12,1.17,.2,2.1,.22v.68c-.64-.02-1.46-.04-2.47-.06-1.01-.02-2.06-.03-3.17-.03-.88,0-1.75,.01-2.59,.03-.84,.02-1.6,.04-2.28,.06v-.62c.66-.04,1.15-.12,1.48-.25,.33-.12,.55-.37,.66-.74,.11-.37,.17-.92,.17-1.66v-15.28c0-.76-.06-1.32-.17-1.68-.11-.36-.34-.61-.68-.74-.34-.13-.83-.21-1.46-.23v-.62Z"/><path class="b" d="M150.5,239.66v10.6c.51-1.07,1.21-1.81,2.08-2.23,.87-.42,1.85-.63,2.94-.63,.88,0,1.59,.11,2.13,.32,.53,.22,.96,.51,1.26,.88,.35,.39,.6,.89,.76,1.51s.23,1.45,.23,2.5v8.29c0,.86,.15,1.45,.45,1.76,.3,.31,.81,.46,1.53,.46v.65c-.39-.02-.98-.05-1.77-.08-.79-.03-1.56-.05-2.3-.05-.8,0-1.58,.02-2.33,.05-.75,.03-1.31,.06-1.68,.08v-.65c.62,0,1.05-.15,1.29-.46,.25-.31,.37-.89,.37-1.76v-9.58c0-.51-.05-.96-.15-1.34-.1-.38-.29-.68-.57-.89-.28-.22-.67-.32-1.19-.32-.55,0-1.06,.15-1.53,.45-.46,.3-.83,.71-1.11,1.25-.28,.53-.42,1.15-.42,1.85v8.6c0,.86,.12,1.45,.37,1.76,.25,.31,.68,.46,1.29,.46v.65c-.37-.02-.91-.05-1.63-.08-.72-.03-1.45-.05-2.19-.05-.8,0-1.61,.02-2.42,.05-.81,.03-1.42,.06-1.83,.08v-.65c.72,0,1.23-.15,1.53-.46,.3-.31,.45-.89,.45-1.76v-17.53c0-.92-.14-1.61-.42-2.05-.28-.44-.8-.66-1.56-.66v-.65c.66,.06,1.29,.09,1.91,.09,.84,0,1.64-.04,2.4-.11,.76-.07,1.46-.18,2.09-.32Z"/><path class="b" d="M170.93,247.39c1.5,0,2.81,.28,3.94,.83,1.13,.55,2.01,1.45,2.65,2.68,.64,1.23,.96,2.87,.96,4.9s-.32,3.66-.96,4.88c-.64,1.22-1.52,2.11-2.65,2.67-1.13,.55-2.45,.83-3.94,.83s-2.76-.28-3.9-.83c-1.14-.55-2.03-1.44-2.68-2.67-.65-1.22-.97-2.85-.97-4.88s.32-3.67,.97-4.9c.65-1.23,1.54-2.13,2.68-2.68,1.14-.55,2.44-.83,3.9-.83Zm0,.62c-.82,0-1.51,.61-2.06,1.83-.55,1.22-.83,3.21-.83,5.96s.28,4.74,.83,5.95,1.24,1.82,2.06,1.82,1.54-.61,2.08-1.82,.82-3.19,.82-5.95-.27-4.74-.82-5.96c-.54-1.22-1.24-1.83-2.08-1.83Z"/><path class="b" d="M186.65,242.77v5.05h3.64v.62h-3.64v12.45c0,.62,.11,1.05,.34,1.31,.23,.26,.56,.39,1.02,.39,.37,0,.74-.14,1.11-.42,.37-.28,.7-.75,.99-1.43l.52,.28c-.33,.92-.83,1.69-1.49,2.28-.67,.6-1.58,.89-2.73,.89-.68,0-1.27-.09-1.79-.26-.51-.17-.94-.44-1.29-.79-.45-.45-.75-1.01-.89-1.68-.14-.67-.22-1.54-.22-2.6v-10.42h-2.59v-.62h2.59v-4.07c.86,0,1.66-.08,2.39-.23,.73-.15,1.41-.41,2.05-.76Z"/><path class="b" d="M199.06,247.39c1.5,0,2.81,.28,3.94,.83s2.01,1.45,2.65,2.68c.64,1.23,.96,2.87,.96,4.9s-.32,3.66-.96,4.88c-.64,1.22-1.52,2.11-2.65,2.67s-2.45,.83-3.94,.83-2.76-.28-3.9-.83c-1.14-.55-2.03-1.44-2.68-2.67-.65-1.22-.97-2.85-.97-4.88s.32-3.67,.97-4.9c.65-1.23,1.54-2.13,2.68-2.68,1.14-.55,2.44-.83,3.9-.83Zm0,.62c-.82,0-1.51,.61-2.06,1.83-.55,1.22-.83,3.21-.83,5.96s.28,4.74,.83,5.95,1.24,1.82,2.06,1.82,1.54-.61,2.08-1.82,.82-3.19,.82-5.95-.27-4.74-.82-5.96c-.54-1.22-1.24-1.83-2.08-1.83Z"/><path class="b" d="M214.5,269.55c-1.27,0-2.41-.11-3.4-.32-1-.22-1.78-.54-2.34-.99-.56-.44-.85-.98-.85-1.62s.29-1.21,.86-1.71c.58-.5,1.43-.9,2.56-1.19l.28,.49c-.39,.31-.67,.64-.85,1-.18,.36-.26,.73-.26,1.13,0,.86,.4,1.53,1.19,1.99,.79,.46,1.86,.69,3.22,.69,.92,0,1.75-.12,2.48-.37,.73-.25,1.3-.62,1.73-1.11s.63-1.1,.63-1.82c0-.62-.23-1.14-.68-1.56s-1.36-.63-2.71-.63h-1.91c-.84,0-1.58-.09-2.2-.28-.63-.18-1.11-.48-1.46-.88s-.52-.91-.52-1.53c0-.86,.34-1.62,1.02-2.28,.68-.66,1.68-1.27,3.02-1.85l.31,.25c-.39,.25-.76,.51-1.09,.79-.34,.28-.51,.63-.51,1.06,0,.66,.41,.99,1.23,.99h3.36c1.13,0,2.14,.13,3.04,.4,.89,.27,1.6,.7,2.13,1.31,.52,.61,.79,1.39,.79,2.36s-.32,1.94-.97,2.8c-.65,.86-1.64,1.56-2.97,2.08s-3.03,.79-5.09,.79Zm.31-12.36c-1.17,0-2.22-.17-3.14-.52-.92-.35-1.65-.88-2.19-1.6-.54-.72-.8-1.64-.8-2.77s.27-2.06,.8-2.79c.53-.73,1.26-1.26,2.19-1.6,.93-.34,1.97-.51,3.14-.51s2.22,.17,3.14,.51,1.65,.87,2.19,1.6c.53,.73,.8,1.66,.8,2.79s-.27,2.05-.8,2.77c-.53,.72-1.26,1.25-2.19,1.6s-1.97,.52-3.14,.52Zm0-.55c.55,0,.99-.31,1.29-.94,.31-.63,.46-1.76,.46-3.41s-.15-2.78-.46-3.41c-.31-.63-.74-.94-1.29-.94s-.96,.31-1.28,.94c-.32,.63-.48,1.76-.48,3.41s.16,2.78,.48,3.41c.32,.63,.74,.94,1.28,.94Zm4.81-6.59l-.62-.22c.31-.8,.81-1.47,1.5-2,.69-.53,1.43-.8,2.23-.8,.66,0,1.16,.18,1.49,.54,.34,.36,.51,.83,.51,1.4,0,.62-.16,1.07-.49,1.37-.33,.3-.7,.45-1.11,.45-.35,0-.67-.12-.97-.37-.3-.25-.47-.62-.51-1.13-.04-.5,.13-1.16,.52-1.96l.22,.18c-.78,.29-1.37,.62-1.76,1s-.73,.89-1.02,1.53Z"/><path class="b" d="M236.16,247.39c.66,0,1.19,.14,1.6,.42,.41,.28,.71,.63,.91,1.06,.19,.43,.29,.88,.29,1.36,0,.76-.22,1.38-.66,1.86-.44,.48-1.02,.72-1.74,.72s-1.28-.18-1.68-.54c-.4-.36-.6-.84-.6-1.43s.13-1.05,.39-1.43,.58-.7,.97-.97c-.29-.08-.58-.07-.86,.03-.39,.06-.76,.22-1.11,.48-.35,.26-.65,.58-.89,.96-.25,.38-.44,.79-.58,1.23-.14,.44-.22,.87-.22,1.28v8.17c0,.99,.24,1.65,.72,2,.48,.35,1.21,.52,2.17,.52v.65c-.47-.02-1.16-.05-2.06-.08-.9-.03-1.85-.05-2.83-.05-.82,0-1.65,.02-2.5,.05-.84,.03-1.48,.06-1.91,.08v-.65c.72,0,1.23-.15,1.53-.46,.3-.31,.45-.89,.45-1.76v-9.71c0-.92-.14-1.61-.42-2.05s-.8-.66-1.56-.66v-.65c.66,.06,1.29,.09,1.91,.09,.86,0,1.67-.04,2.42-.11,.75-.07,1.44-.18,2.08-.32v2.87c.25-.55,.58-1.06,.99-1.51,.41-.45,.88-.81,1.42-1.06,.53-.26,1.13-.39,1.79-.39Z"/><path class="b" d="M244.21,263.97c-.92,0-1.69-.18-2.31-.52-.62-.35-1.07-.82-1.36-1.4-.29-.59-.43-1.23-.43-1.93,0-.88,.2-1.6,.6-2.16,.4-.55,.92-1.01,1.56-1.36,.64-.35,1.31-.64,2.02-.86,.71-.23,1.39-.45,2.03-.66s1.17-.47,1.57-.77c.4-.3,.6-.68,.6-1.16v-2.4c0-.53-.09-1.01-.26-1.43-.17-.42-.44-.74-.8-.97-.36-.23-.83-.34-1.4-.34-.41,0-.82,.06-1.23,.17-.41,.11-.75,.3-1.02,.57,.58,.21,1.02,.52,1.34,.94,.32,.42,.48,.9,.48,1.43,0,.7-.24,1.25-.72,1.66-.48,.41-1.05,.62-1.71,.62-.74,0-1.3-.23-1.68-.69s-.57-1.02-.57-1.68c0-.6,.15-1.09,.45-1.48,.3-.39,.71-.76,1.25-1.11,.58-.33,1.27-.59,2.08-.77s1.69-.28,2.63-.28,1.8,.1,2.56,.29c.76,.2,1.4,.55,1.91,1.06,.47,.47,.78,1.05,.92,1.74s.22,1.56,.22,2.6v8.38c0,.51,.05,.87,.15,1.06,.1,.2,.28,.29,.52,.29,.19,0,.36-.05,.54-.15s.37-.23,.57-.37l.31,.52c-.43,.37-.93,.65-1.49,.85-.57,.19-1.2,.29-1.9,.29-.76,0-1.37-.11-1.82-.32-.45-.22-.78-.51-.97-.88-.2-.37-.29-.8-.29-1.29-.49,.78-1.09,1.39-1.79,1.83s-1.55,.66-2.56,.66Zm2.19-1.97c.41,0,.79-.1,1.12-.29,.34-.19,.66-.52,.97-.97v-6.32c-.19,.31-.44,.59-.77,.83-.33,.25-.68,.5-1.05,.76-.37,.26-.72,.54-1.06,.85-.34,.31-.61,.69-.82,1.14-.21,.45-.31,1-.31,1.63,0,.8,.17,1.4,.52,1.79s.81,.59,1.39,.59Z"/><path class="b" d="M262.2,247.49v18.8c0,.97,.25,1.61,.74,1.93,.49,.32,1.17,.48,2.03,.48v.65c-.53-.02-1.27-.05-2.2-.08-.94-.03-1.93-.05-2.97-.05-.76,0-1.5,.01-2.23,.05-.73,.03-1.28,.06-1.65,.08v-.65c.68,0,1.16-.14,1.43-.43,.28-.29,.42-.84,.42-1.66v-15.41c0-.92-.14-1.61-.43-2.05-.29-.44-.8-.66-1.54-.66v-.65c.66,.06,1.29,.09,1.91,.09,.84,0,1.64-.04,2.4-.11,.76-.07,1.46-.18,2.09-.32Zm4.78-.09c1.05,0,1.98,.28,2.8,.85,.82,.56,1.48,1.42,1.97,2.56,.49,1.14,.74,2.56,.74,4.27,0,1.5-.17,2.82-.51,3.94-.34,1.13-.82,2.08-1.45,2.85s-1.38,1.35-2.25,1.74c-.87,.39-1.85,.59-2.94,.59-.8,0-1.53-.14-2.19-.42s-1.16-.67-1.51-1.19l.31-.4c.21,.37,.5,.66,.88,.86,.38,.21,.82,.31,1.31,.31,.92,0,1.65-.31,2.19-.94,.53-.63,.92-1.51,1.16-2.65,.24-1.14,.35-2.5,.35-4.08,0-1.77-.11-3.15-.34-4.16-.23-1.01-.53-1.73-.92-2.16-.39-.43-.86-.65-1.42-.65-.74,0-1.41,.29-2.02,.86-.61,.58-.95,1.4-1.03,2.47l-.15-1.08c.37-1.17,1-2.06,1.9-2.67,.89-.61,1.94-.91,3.13-.91Z"/><path class="b" d="M280.66,239.66v10.6c.51-1.07,1.21-1.81,2.08-2.23,.87-.42,1.85-.63,2.94-.63,.88,0,1.59,.11,2.13,.32,.53,.22,.96,.51,1.26,.88,.35,.39,.6,.89,.76,1.51s.23,1.45,.23,2.5v8.29c0,.86,.15,1.45,.45,1.76,.3,.31,.81,.46,1.53,.46v.65c-.39-.02-.98-.05-1.77-.08-.79-.03-1.56-.05-2.3-.05-.8,0-1.58,.02-2.33,.05-.75,.03-1.31,.06-1.68,.08v-.65c.62,0,1.05-.15,1.29-.46,.25-.31,.37-.89,.37-1.76v-9.58c0-.51-.05-.96-.15-1.34-.1-.38-.29-.68-.57-.89-.28-.22-.67-.32-1.19-.32-.55,0-1.06,.15-1.53,.45-.46,.3-.83,.71-1.11,1.25-.28,.53-.42,1.15-.42,1.85v8.6c0,.86,.12,1.45,.37,1.76,.25,.31,.68,.46,1.29,.46v.65c-.37-.02-.91-.05-1.63-.08-.72-.03-1.45-.05-2.19-.05-.8,0-1.61,.02-2.42,.05-.81,.03-1.42,.06-1.83,.08v-.65c.72,0,1.23-.15,1.53-.46,.3-.31,.45-.89,.45-1.76v-17.53c0-.92-.14-1.61-.42-2.05s-.8-.66-1.56-.66v-.65c.66,.06,1.29,.09,1.91,.09,.84,0,1.64-.04,2.4-.11,.76-.07,1.46-.18,2.09-.32Z"/><path class="b" d="M307.87,247.82v.62c-.39,.1-.76,.34-1.11,.72-.35,.38-.69,1.02-1.02,1.93l-4.35,12.2-1.14,2.16-6.72-15.25c-.35-.8-.69-1.29-1.03-1.46-.34-.17-.63-.26-.88-.26v-.65c.68,.06,1.38,.11,2.11,.14,.73,.03,1.43,.05,2.11,.05,.84,0,1.61-.02,2.31-.06,.7-.04,1.36-.08,1.97-.12v.65c-.41,0-.8,.03-1.16,.08-.36,.05-.61,.2-.74,.43-.13,.24-.08,.64,.17,1.22l3.88,9.37-.28,.18,2.28-6.38c.39-1.11,.55-2.02,.49-2.73-.06-.71-.29-1.24-.68-1.6-.39-.36-.92-.56-1.6-.6v-.62c.33,.02,.67,.04,1.02,.05,.35,.01,.7,.02,1.05,.03,.35,.01,.66,.02,.92,.02,.41,0,.84-.01,1.29-.03,.45-.02,.81-.04,1.08-.06Zm-6.47,15.47l-1.17,3.3c-.21,.51-.42,.95-.63,1.31-.22,.36-.46,.65-.72,.88-.29,.25-.66,.44-1.11,.57-.45,.13-.98,.2-1.57,.2-.49,0-1-.08-1.53-.25s-.96-.43-1.31-.8-.52-.84-.52-1.42c0-.64,.23-1.15,.68-1.53s1.05-.57,1.79-.57c.68,0,1.23,.16,1.66,.49,.43,.33,.65,.81,.65,1.45,0,.41-.13,.8-.39,1.17-.26,.37-.64,.65-1.16,.83,.1,.02,.23,.03,.37,.03h.34c.62,0,1.16-.2,1.63-.59,.47-.39,.86-1.01,1.17-1.85l1.08-3.17,.74-.06Z"/></g></svg>