<?xml version="1.0" standalone="no"?>
<!DOCTYPE svg PUBLIC "-//W3C//DTD SVG 20010904//EN"
 "http://www.w3.org/TR/2001/REC-SVG-20010904/DTD/svg10.dtd">
<svg version="1.0" xmlns="http://www.w3.org/2000/svg"
 width="616.000000pt" height="616.000000pt" viewBox="0 0 616.000000 616.000000"
 preserveAspectRatio="xMidYMid meet">
<metadata>
Created by potrace 1.14, written by Peter Selinger 2001-2017
</metadata>
<g transform="translate(0.000000,616.000000) scale(0.100000,-0.100000)"
fill="#000000" stroke="none">
<path d="M2690 5582 c-282 -162 -745 -427 -910 -520 -516 -292 -1031 -590
-1053 -610 -15 -15 -31 -39 -35 -54 -4 -16 -7 -617 -6 -1337 l1 -1310 22 -33
c18 -25 128 -93 485 -296 253 -145 468 -268 476 -272 8 -5 65 -37 125 -71 61
-34 121 -69 135 -77 14 -9 27 -17 30 -17 3 0 16 -8 30 -16 31 -20 89 -53 160
-92 30 -17 84 -48 119 -69 34 -21 64 -38 66 -38 2 0 89 -49 195 -110 106 -60
196 -110 201 -110 5 0 9 -4 9 -10 0 -5 4 -10 9 -10 9 0 172 -90 181 -100 16
-17 120 -60 145 -60 39 0 30 -5 482 254 378 216 1025 586 1093 623 30 17 106
61 169 97 62 36 116 66 118 66 3 0 17 8 31 19 15 10 51 31 80 47 29 16 61 34
70 39 9 6 78 45 153 88 150 85 173 105 186 157 10 41 9 2578 -1 2631 -3 19
-19 47 -34 61 -21 19 -681 402 -1082 626 -25 14 -78 45 -118 69 -41 24 -77 43
-82 43 -4 0 -13 7 -20 15 -6 8 -15 13 -18 12 -4 -1 -50 24 -102 55 -52 30
-113 65 -135 77 -22 12 -47 26 -55 32 -55 35 -474 269 -481 269 -5 0 -9 5 -9
10 0 6 -4 10 -9 10 -5 0 -49 23 -98 51 -147 86 -118 94 -523 -139z m445 90
c90 -51 146 -83 430 -245 154 -88 305 -173 335 -190 30 -17 67 -38 82 -49 14
-10 28 -18 31 -18 3 0 61 -32 129 -71 67 -40 148 -85 178 -102 30 -16 66 -38
80 -47 14 -10 35 -21 48 -24 12 -4 22 -12 22 -17 0 -5 5 -9 10 -9 6 0 148 -79
316 -175 169 -96 310 -175 315 -175 5 0 9 -4 9 -10 0 -5 5 -10 10 -10 12 0
218 -117 238 -135 12 -10 14 -238 14 -1320 l0 -1308 -23 -18 c-13 -10 -51 -33
-84 -50 -33 -18 -61 -36 -63 -41 -2 -4 -8 -8 -12 -8 -8 0 -326 -178 -505 -283
-38 -23 -72 -42 -75 -42 -3 0 -16 -8 -30 -17 -20 -13 -703 -403 -910 -520 -25
-14 -106 -60 -180 -103 -74 -43 -155 -89 -180 -103 -25 -14 -82 -47 -127 -73
-46 -27 -94 -51 -107 -55 -18 -4 -124 52 -482 256 -252 144 -475 271 -494 282
-19 12 -48 28 -65 38 -64 36 -322 184 -365 208 -38 21 -217 124 -505 289 -33
19 -68 37 -77 40 -10 3 -18 9 -18 14 0 5 -4 9 -9 9 -5 0 -64 32 -131 70 -67
39 -125 70 -129 70 -5 0 -16 9 -26 20 -17 18 -18 85 -18 1326 1 1094 3 1308
14 1319 11 10 377 221 839 483 22 12 58 32 79 45 22 12 95 53 163 92 68 38
130 74 139 80 9 5 40 23 70 39 30 16 65 36 79 46 14 9 54 33 90 52 36 20 94
53 130 73 36 21 85 49 110 63 25 14 59 34 75 44 17 10 37 21 45 25 8 4 52 29
98 55 46 26 88 48 93 48 5 0 9 5 9 10 0 6 4 10 9 10 5 0 54 26 108 57 123 71
146 83 158 83 6 0 33 -13 60 -28z"/>
<path d="M3425 4390 c-1 -3 -3 -67 -3 -143 l0 -138 36 3 37 3 1 95 c1 52 2
100 3 106 1 7 27 10 69 10 l67 -1 3 -107 3 -108 34 0 35 0 0 143 0 142 -141 0
c-77 0 -142 -2 -144 -5z"/>
<path d="M2405 4080 l-28 -5 -1 -533 c-1 -346 3 -536 9 -541 6 -4 143 -6 305
-6 l295 1 3 62 c3 63 -2 71 -43 62 -26 -5 -274 -2 -284 4 -6 4 -11 4 -11 -1 0
-4 -29 -7 -64 -5 l-65 4 0 167 1 168 120 -1 c118 -1 121 -2 130 -25 38 -103
87 -159 177 -203 50 -26 77 -32 125 -33 112 0 176 24 246 94 43 43 56 64 88
143 11 26 11 26 114 25 l103 -2 2 -167 c2 -165 0 -174 -29 -169 -9 1 -81 1
-261 0 -76 0 -141 2 -144 5 -3 3 -13 1 -22 -3 -12 -7 -16 -22 -15 -61 1 -28 5
-54 8 -58 9 -9 597 -8 603 1 7 11 6 1067 -1 1074 -7 7 -606 10 -607 3 -6 -36
-2 -96 7 -104 7 -7 85 -11 237 -10 l227 1 0 -199 0 -199 -105 3 c-58 2 -105 6
-105 10 0 20 -52 123 -76 151 -62 74 -154 117 -248 117 -156 0 -278 -90 -321
-235 l-12 -40 -121 -3 -121 -3 0 199 1 199 231 0 232 -1 5 57 c4 46 2 57 -10
58 -84 3 -553 3 -575 -1z m790 -334 c53 -25 80 -50 114 -106 36 -60 30 -70
-39 -70 l-60 0 0 -58 0 -57 60 1 c33 1 60 0 60 -1 0 -1 -6 -18 -14 -36 -28
-64 -102 -126 -166 -138 -33 -6 -100 -6 -125 0 -65 15 -150 93 -169 155 -5 17
-2 21 16 21 71 1 68 -1 68 58 l0 55 -50 0 -50 0 15 38 c57 137 210 199 340
138z"/>
<path d="M2988 2846 c-6 -23 -15 -45 -20 -50 -4 -6 -8 -16 -8 -24 0 -8 -6 -28
-14 -45 -7 -18 -26 -68 -41 -112 -15 -44 -31 -89 -36 -100 -4 -11 -31 -85 -60
-165 -97 -276 -179 -505 -189 -528 -6 -13 -10 -27 -10 -32 0 -6 36 -10 80 -10
l79 0 12 43 c7 23 13 44 14 47 1 5 143 441 203 625 20 61 37 115 38 120 8 42
38 115 45 108 4 -4 15 -33 23 -63 30 -112 48 -175 54 -190 7 -20 38 -124 57
-190 6 -22 62 -209 74 -248 5 -18 10 -34 11 -37 0 -3 2 -10 5 -17 2 -7 13 -47
25 -88 12 -41 24 -83 26 -92 5 -15 17 -18 78 -18 40 0 75 3 78 6 4 3 2 20 -4
37 -5 18 -10 37 -12 42 -1 6 -44 138 -95 295 -51 157 -106 328 -123 380 -16
52 -34 104 -38 115 -5 11 -24 67 -42 125 l-33 105 -83 1 -82 0 -12 -40z"/>
</g>
</svg>
